<?xml version="1.0" standalone="no"?>
<!DOCTYPE svg PUBLIC "-//W3C//DTD SVG 20010904//EN"
 "http://www.w3.org/TR/2001/REC-SVG-20010904/DTD/svg10.dtd">
<svg version="1.0" xmlns="http://www.w3.org/2000/svg"
 width="900.000000pt" height="900.000000pt" viewBox="0 0 900.000000 900.000000"
 preserveAspectRatio="xMidYMid meet">
<metadata>
Created by potrace 1.13, written by Peter Selinger 2001-2015
</metadata>
<g transform="translate(0.000000,900.000000) scale(0.100000,-0.100000)"
fill="#000000" stroke="none">
<path d="M4114 8189 c-3 -6 -18 -10 -84 -25 -62 -14 -83 -22 -148 -61 -41 -24
-121 -80 -179 -126 -58 -45 -117 -91 -132 -102 -14 -10 -62 -51 -106 -90 -44
-39 -90 -78 -102 -87 -13 -8 -57 -48 -100 -89 -42 -41 -83 -76 -89 -79 -21 -8
-534 -511 -534 -523 0 -6 -35 -47 -77 -92 -90 -94 -153 -165 -153 -172 0 -3
-14 -22 -30 -42 -17 -20 -51 -61 -76 -91 -25 -30 -62 -74 -82 -97 -20 -23 -53
-61 -72 -84 -19 -24 -59 -68 -87 -99 -29 -31 -66 -74 -81 -96 -44 -60 -143
-164 -397 -419 -126 -127 -235 -237 -240 -245 -10 -15 -96 -121 -105 -130 -6
-6 -118 -136 -138 -160 -7 -8 -33 -40 -58 -70 -24 -30 -60 -71 -79 -90 -19
-19 -35 -39 -35 -43 0 -4 -46 -60 -102 -123 -57 -63 -106 -122 -109 -132 -4
-9 -16 -26 -28 -36 -11 -11 -21 -24 -21 -31 0 -6 -11 -22 -25 -35 -21 -20 -24
-30 -19 -55 8 -40 35 -85 50 -85 7 0 27 23 46 52 47 73 60 91 90 129 15 19 76
95 135 170 60 75 133 165 163 199 30 35 77 90 104 124 123 153 311 358 516
561 95 93 181 181 192 195 11 14 59 68 108 120 97 104 185 204 228 257 15 19
56 69 92 111 36 42 115 138 176 213 147 179 693 725 815 814 15 11 98 81 184
155 86 74 164 140 174 145 9 6 42 31 73 58 30 26 59 47 64 47 4 0 19 11 33 24
15 13 49 36 76 51 28 15 56 32 64 38 25 21 85 37 138 37 89 0 169 -47 247
-145 27 -35 116 -171 116 -179 0 -2 15 -37 34 -78 44 -96 113 -301 120 -357 3
-25 10 -49 16 -55 5 -5 10 -23 10 -38 0 -16 6 -54 14 -86 29 -118 36 -153 36
-185 0 -17 6 -52 14 -77 24 -75 72 -477 60 -501 -2 -4 -41 -10 -86 -13 -226
-20 -369 -35 -380 -42 -15 -9 -60 -21 -193 -49 -16 -4 -43 -13 -60 -20 -16 -7
-57 -19 -90 -25 -33 -7 -78 -21 -101 -31 -22 -11 -44 -19 -49 -19 -4 0 -26 -9
-49 -19 -23 -11 -61 -28 -86 -40 -99 -45 -217 -115 -355 -211 -27 -19 -123
-100 -190 -160 -83 -74 -205 -217 -298 -348 -48 -68 -87 -125 -87 -128 0 -3
-10 -20 -22 -37 -48 -67 -130 -232 -167 -337 -7 -19 -18 -46 -24 -60 -9 -19
-12 -337 -12 -1235 l0 -1210 42 -72 c24 -39 63 -89 88 -111 25 -22 45 -45 45
-51 0 -6 9 -11 20 -11 11 0 19 -3 18 -7 -4 -15 27 -53 44 -53 9 0 40 -9 70
-19 52 -19 212 -46 333 -57 33 -2 71 -7 85 -9 14 -3 52 -8 85 -11 33 -3 71 -7
85 -9 42 -6 178 -24 305 -40 66 -9 149 -20 185 -25 36 -5 94 -12 130 -15 36
-2 115 -12 175 -20 274 -39 317 -44 330 -38 9 3 22 0 30 -7 10 -8 35 -11 70
-8 31 3 58 1 61 -4 3 -4 25 -8 50 -8 25 0 54 -5 64 -10 14 -8 25 -7 40 2 16
10 22 10 28 1 4 -7 16 -11 27 -11 11 1 43 -4 70 -10 28 -7 77 -14 110 -17 65
-4 195 -20 290 -35 36 -6 63 -6 69 0 5 5 19 4 36 -5 23 -12 165 -33 360 -53
36 -4 99 -6 140 -5 41 1 179 -3 306 -9 242 -12 328 -5 381 29 13 9 26 13 29
10 3 -3 21 3 40 14 19 10 43 19 53 19 10 0 24 7 31 15 7 8 20 15 29 15 9 0 30
9 46 20 17 12 44 28 62 36 18 9 44 26 58 39 14 13 46 38 71 56 25 17 60 44 77
59 18 15 54 39 81 54 53 30 76 49 76 65 0 14 -67 -26 -74 -44 -5 -15 -46 -21
-46 -7 1 9 86 72 99 72 5 0 17 10 25 22 l16 22 0 -29 c0 -40 10 -75 22 -75 5
0 8 28 7 63 -1 36 3 73 11 87 36 67 40 119 45 650 4 289 10 584 15 655 4 72 9
254 10 405 1 151 5 383 9 515 4 132 4 253 0 270 -20 77 -52 149 -141 315 -68
128 -89 163 -104 181 -8 8 -14 20 -14 26 0 5 -11 20 -25 33 -14 13 -25 28 -25
32 0 5 -11 24 -25 42 -14 18 -25 37 -25 43 0 5 -11 20 -25 33 -14 13 -25 28
-25 35 0 6 -30 42 -67 81 -38 39 -86 92 -108 118 -22 26 -73 75 -114 109 -41
34 -91 79 -112 99 -38 37 -95 78 -151 109 -16 10 -39 24 -51 33 -44 33 -187
124 -187 119 0 -2 -7 3 -16 12 -9 9 -24 13 -35 10 -10 -4 -29 1 -41 9 -12 9
-33 16 -45 16 -13 0 -23 5 -23 10 0 6 -12 10 -26 10 -15 0 -32 7 -39 17 -7 10
-19 14 -29 10 -20 -8 -12 -27 10 -27 9 0 28 -12 43 -27 l27 -27 -41 -21 c-22
-12 -52 -25 -68 -29 -23 -5 -29 -3 -37 19 -9 24 -30 35 -30 16 0 -5 -3 -16 -6
-25 -4 -12 0 -16 15 -16 27 0 28 -25 1 -27 -11 -1 -20 2 -20 8 0 5 -5 9 -12 9
-6 0 -20 7 -30 17 -17 15 -18 15 -18 -5 0 -11 6 -22 13 -25 6 -2 9 -8 4 -12
-4 -5 -13 -2 -20 6 -18 23 -68 52 -75 44 -4 -4 8 -19 27 -34 52 -42 34 -59
-19 -18 -82 63 -366 197 -417 197 -10 0 -31 8 -48 18 -16 10 -68 26 -115 36
-47 10 -98 22 -113 27 -16 5 -58 12 -93 15 -45 5 -67 12 -73 23 -5 9 -11 52
-14 96 -6 84 -17 159 -44 315 -9 52 -15 111 -15 132 1 23 -4 38 -13 42 -9 3
-15 19 -15 40 0 19 -5 36 -12 38 -6 2 -12 15 -14 29 -1 13 -8 44 -14 69 -7 25
-12 57 -11 73 0 15 1 37 2 50 3 94 -121 497 -161 522 -6 3 -10 12 -10 20 0 27
-115 198 -181 269 -69 74 -161 134 -218 141 -14 2 -28 4 -31 6 -14 5 -112 3
-116 -2z m-804 -594 c0 -7 -40 -46 -181 -175 -211 -193 -582 -570 -668 -678
-18 -23 -37 -42 -43 -42 -8 0 57 87 82 110 3 3 16 19 28 35 50 65 364 392 438
456 27 23 87 78 135 123 47 44 97 91 111 103 14 11 30 27 34 35 14 21 64 47
64 33z m1494 -1264 c3 -4 -1 -17 -9 -27 -22 -29 -18 -36 15 -29 25 6 36 2 57
-19 18 -18 32 -24 47 -20 14 3 28 -1 35 -10 8 -9 29 -16 50 -16 35 0 169 -38
207 -58 11 -6 45 -18 77 -27 31 -9 57 -21 57 -26 0 -5 6 -9 14 -9 17 0 80 -32
84 -42 2 -5 10 -8 17 -8 21 0 120 -59 112 -67 -4 -3 -66 25 -142 65 -38 20
-52 27 -90 42 -16 7 -43 19 -60 26 -16 7 -50 18 -75 24 -25 7 -56 16 -70 21
-69 24 -222 63 -280 70 -271 37 -568 30 -719 -17 -25 -8 -57 -14 -73 -14 -15
0 -28 -4 -28 -10 0 -5 -11 -10 -25 -10 -14 0 -25 5 -25 10 0 6 11 10 25 10 14
0 25 3 25 8 0 14 251 80 360 94 41 5 118 12 170 15 57 3 102 10 114 19 22 15
121 19 130 5z m321 -63 c44 -11 89 -23 100 -28 11 -5 39 -12 62 -15 23 -4 58
-15 77 -25 20 -10 36 -14 36 -9 0 16 19 10 43 -13 12 -13 27 -24 32 -24 6 -1
14 -2 19 -3 5 0 3 -7 -3 -15 -9 -11 -9 -16 0 -21 6 -4 15 -2 19 5 4 6 16 10
26 7 17 -4 17 -6 -3 -12 -13 -4 -23 -12 -23 -17 0 -11 -39 0 -60 17 -8 7 -33
19 -55 26 -22 7 -45 16 -50 20 -6 4 -42 17 -80 28 -39 11 -100 28 -136 39 -36
11 -89 23 -117 27 -53 7 -68 17 -57 36 8 12 56 6 170 -23z m-1225 -1174 c52
-3 226 -12 385 -21 649 -35 842 -49 905 -64 62 -16 150 -59 150 -74 0 -8 -16
-4 -47 11 -73 36 -207 50 -678 74 -104 5 -208 12 -230 15 -22 3 -112 10 -200
16 -491 30 -505 32 -505 49 0 14 21 16 74 8 28 -5 94 -11 146 -14z m85 -1575
c33 -5 87 -9 120 -9 33 -1 80 -5 105 -11 25 -6 87 -12 138 -15 51 -2 100 -8
110 -13 9 -5 53 -9 97 -9 45 -1 93 -6 109 -11 15 -6 59 -11 99 -11 39 0 96 -5
126 -10 48 -9 378 -44 656 -71 143 -13 347 -39 356 -45 5 -3 9 -10 9 -16 0 -7
-17 -9 -52 -4 -85 11 -226 26 -328 35 -234 21 -630 62 -681 71 -30 6 -82 10
-115 10 -32 0 -75 5 -94 10 -19 6 -66 11 -105 11 -38 0 -86 4 -107 10 -21 5
-83 11 -138 14 -56 2 -107 8 -113 14 -7 5 -53 9 -103 9 -55 0 -101 5 -115 13
-14 7 -64 13 -119 14 -98 2 -134 10 -124 27 7 10 166 3 269 -13z"/>
</g>
</svg>
