<?xml version="1.0" standalone="no"?>
<!DOCTYPE svg PUBLIC "-//W3C//DTD SVG 20010904//EN"
 "http://www.w3.org/TR/2001/REC-SVG-20010904/DTD/svg10.dtd">
<svg version="1.0" xmlns="http://www.w3.org/2000/svg"
 width="211.000000pt" height="174.000000pt" viewBox="0 0 211.000000 174.000000"
 preserveAspectRatio="xMidYMid meet">

<g transform="translate(0.000000,174.000000) scale(0.100000,-0.100000)"
fill="#000000" stroke="none">
<path d="M1676 1688 c-21 -75 -94 -350 -116 -437 -5 -18 -12 -37 -17 -42 -4
-4 -260 -9 -568 -11 l-560 -3 -55 -26 c-86 -40 -123 -93 -155 -219 -19 -77
-53 -208 -89 -340 -118 -444 -123 -472 -83 -531 12 -19 40 -43 62 -54 39 -19
63 -20 768 -23 l727 -3 11 27 c5 15 26 89 45 163 20 75 47 179 60 231 14 52
38 145 54 205 42 161 114 435 177 670 55 209 106 402 110 423 l5 22 -180 0
-181 0 -15 -52z m-206 -713 c10 -12 10 -25 1 -58 -44 -162 -160 -608 -166
-634 -3 -18 -15 -44 -26 -58 l-20 -25 -429 0 c-463 0 -461 0 -446 52 4 13 20
73 36 133 16 61 42 162 59 225 17 63 44 166 60 228 16 63 37 122 47 133 16 18
36 19 444 19 369 0 429 -2 440 -15z"/>
</g>
</svg>
