<svg xmlns="http://www.w3.org/2000/svg" xmlns:xlink="http://www.w3.org/1999/xlink" version="1.1" id="Layer_1" x="0px" y="0px" viewBox="0 0 856.24 856.24" xml:space="preserve" enable-background="new 0 0 856.24 856.24">
  <g>
    <path d="M790.78 65.47C748.56 23.25 692.66 0 633.36 0H222.88c-59.29 0-115.2 23.25-157.42 65.47C23.25 107.68 0 163.59 0 222.88v410.48c0 59.29 23.25 115.2 65.47 157.42 42.22 42.22 98.12 65.47 157.42 65.47h410.48c59.29 0 115.2-23.25 157.42-65.47s65.47-98.12 65.47-157.42V222.88C856.24 163.59 832.99 107.68 790.78 65.47zM844.91 633.36c0 56.27-22.07 109.32-62.15 149.4s-93.13 62.15-149.4 62.15H222.88c-56.27 0-109.32-22.07-149.4-62.15 -40.08-40.08-62.15-93.13-62.15-149.4V222.88c0-56.27 22.07-109.32 62.15-149.4 40.08-40.08 93.13-62.15 149.4-62.15h410.48c56.27 0 109.32 22.07 149.4 62.15 40.08 40.08 62.15 93.13 62.15 149.4V633.36z"/>
    <path d="M426.16 108.86c-83.02 0-161.07 32.33-219.77 91.03 -15.3 15.31-29.02 32.23-40.83 50.36v-0.53l-6.64 11.2 -1.83 3.12c-0.27 0.46-0.54 0.93-0.8 1.39l-2.89 5.18c-0.19 0.34-0.37 0.68-0.55 1.02 -0.18 0.33-0.35 0.66-0.54 1l-4.1 7.85c-0.33 0.67-0.67 1.34-1 2.03l-0.76 1.57c-0.17 0.35-0.33 0.7-0.5 1.04l-4.05 8.82c-0.25 0.54-0.48 1.08-0.71 1.62l-1.77 4.13 -2.33 5.71c-0.19 0.48-0.38 0.96-0.57 1.45l-0.45 1.16c-0.28 0.73-0.56 1.45-0.83 2.18l-0.51 1.37c-0.3 0.8-0.6 1.61-0.88 2.4l-1.65 4.73c-0.28 0.8-0.55 1.61-0.82 2.42l-1.71 5.29c-0.15 0.46-0.29 0.92-0.44 1.39l-0.56 1.83c-0.26 0.85-0.51 1.7-0.79 2.65l-1.35 4.82c-0.23 0.84-0.46 1.67-0.7 2.55l-0.27 1.02c-4.43 16.9-7.44 34.28-8.95 51.64l-0.05 0.48c-0.76 8.88-1.15 17.94-1.15 26.91 0 9.3 0.41 18.63 1.22 27.79l-0.08-0.06 0.69 6.27c0.07 0.71 0.16 1.41 0.24 2.11l0.77 6.13c0.11 0.85 0.23 1.7 0.36 2.57l0.71 4.7c0.08 0.47 0.15 0.94 0.23 1.4l0.4 2.4c5.41 31.3 15.59 61.49 30.25 89.73l0.11 0.22c0.23 0.44 0.46 0.88 0.69 1.32l1.28 2.41c0.39 0.72 0.78 1.44 1.18 2.16l2.76 4.93c0.31 0.54 0.61 1.07 0.97 1.69l8.39 14.13v-0.52c11.8 18.12 25.52 35.04 40.83 50.36 58.7 58.7 136.75 91.03 219.77 91.03 83.02 0 161.06-32.33 219.77-91.03 58.7-58.7 91.03-136.75 91.03-219.77 0-83.02-32.33-161.07-91.03-219.77C587.23 141.19 509.18 108.86 426.16 108.86zM727.28 456.57c-2.44 20.13-6.9 39.98-13.26 59.04 -5.32 16-12.05 31.66-20.04 46.63V456.57H727.28zM124.45 386.98c4.15-38.74 15.51-75.69 33.79-109.93v109.93H124.45zM693.97 386.98V277.03c8.32 15.58 15.27 31.92 20.7 48.65 6.46 19.84 10.86 40.46 13.09 61.3H693.97zM124.14 449.25c-0.95-9.75-1.43-19.71-1.43-29.6 0-8.38 0.35-16.9 1.05-25.33h41.82V264.08c12.82-21.43 28.31-41.29 46.03-59.03 57.32-57.32 133.52-88.88 214.58-88.88 81.06 0 157.27 31.56 214.59 88.88 17.63 17.64 33.06 37.42 45.89 58.8v130.45l41.95 0c0.69 8.44 1.05 16.96 1.05 25.33 0 9.87-0.48 19.82-1.43 29.6h-41.57v126.19c-12.8 21.37-28.23 41.15-45.88 58.8 -57.33 57.32-133.54 88.88-214.59 88.88 -81.06 0-157.26-31.57-214.58-88.88 -17.7-17.69-33.19-37.54-46.03-59.01V449.25H124.14zM158.24 456.57v105.66c-17.59-32.97-28.78-68.49-33.29-105.66H158.24z"/>
    <path d="M269.93 465.12c25.08 0 45.48-20.4 45.48-45.48s-20.4-45.48-45.48-45.48 -45.48 20.4-45.48 45.48S244.85 465.12 269.93 465.12z"/>
    <path d="M582.42 465.12c25.08 0 45.48-20.4 45.48-45.48s-20.4-45.48-45.48-45.48 -45.48 20.4-45.48 45.48S557.35 465.12 582.42 465.12z"/>
  </g>
</svg>
